<svg aria-hidden="true" style="position: absolute; width: 0; height: 0; overflow: hidden;" version="1.1" xmlns="http://www.w3.org/2000/svg" xmlns:xlink="http://www.w3.org/1999/xlink">
<defs>
<symbol id="icon-Vector" viewBox="0 0 42 32">
<path d="M32.399 20.752c0.741 0.384 1.365 0.261 1.873-0.37s0.569-1.289 0.185-1.974l-2.922-5.512-2.222 6.047 3.087 1.81zM23.674 19.025h2.901l3.972-9.954c0.165-0.384 0.226-0.761 0.185-1.131s-0.267-0.651-0.679-0.843l-3.416-1.481c-0.384-0.192-0.768-0.192-1.152 0s-0.59 0.48-0.617 0.864l-1.194 12.546zM11.482 19.025h2.85l-1.152-12.546c-0.027-0.411-0.213-0.713-0.556-0.905s-0.748-0.178-1.214 0.041l-3.251 1.399c-0.357 0.137-0.556 0.446-0.597 0.926s0.007 0.912 0.144 1.296l3.776 9.79zM5.648 20.752l3.087-1.81-2.222-6.047-2.922 5.718c-0.384 0.768-0.302 1.392 0.247 1.872s1.152 0.569 1.811 0.267zM16.801 19.025h4.404l1.358-14.973c0.055-0.384-0.048-0.706-0.309-0.967s-0.583-0.391-0.967-0.391h-4.527c-0.439 0-0.768 0.13-0.988 0.391s-0.316 0.583-0.288 0.967l1.317 14.973zM4.742 23.487c-1.136 0-2.095-0.405-2.879-1.215s-1.175-1.783-1.175-2.918c0-0.349 0.062-0.689 0.185-1.021s0.26-0.658 0.411-0.979l3.757-7.275c-0.412-1.115-0.438-2.219-0.079-3.311s1.055-1.864 2.089-2.315l3.416-1.399c0.439-0.165 0.885-0.262 1.338-0.293s0.874 0.074 1.265 0.314c0.193-0.897 0.632-1.634 1.317-2.211s1.476-0.865 2.373-0.865h4.527c0.898 0 1.689 0.268 2.373 0.803s1.124 1.238 1.317 2.108c0.412-0.158 0.838-0.222 1.281-0.191s0.869 0.142 1.281 0.334l3.457 1.399c1.055 0.404 1.77 1.143 2.145 2.218s0.337 2.129-0.116 3.162l3.737 7.48c0.116 0.315 0.245 0.626 0.385 0.934s0.211 0.622 0.211 0.943c0 1.211-0.433 2.23-1.298 3.057s-1.908 1.241-3.126 1.241c-0.315 0-0.613-0.063-0.893-0.19s-0.564-0.248-0.852-0.364l-2.471-1.214h-19.431l-2.338 1.214c-0.349 0.144-0.705 0.272-1.067 0.385s-0.743 0.169-1.14 0.169z"></path>
<path fill="none" stroke="#000" style="stroke: var(--color1, #000)" stroke-linejoin="miter" stroke-linecap="butt" stroke-miterlimit="4" stroke-width="1.0323" d="M16.76 0.516h4.526c0.786 0 1.465 0.232 2.055 0.694h0.001c0.588 0.459 0.962 1.057 1.13 1.813l0.13 0.585 0.559-0.215c0.341-0.131 0.692-0.183 1.059-0.157 0.378 0.026 0.743 0.12 1.099 0.286l0.012 0.006 0.012 0.005 3.467 1.402c0.911 0.349 1.517 0.973 1.843 1.905v0.001c0.333 0.953 0.298 1.871-0.102 2.783l-0.098 0.222 0.109 0.217 3.723 7.452c0.118 0.319 0.249 0.634 0.391 0.946v0.001c0.111 0.243 0.164 0.485 0.164 0.728 0 1.071-0.377 1.955-1.139 2.684-0.768 0.734-1.682 1.099-2.769 1.099-0.243 0-0.469-0.048-0.68-0.144-0.279-0.126-0.562-0.248-0.849-0.364l-2.567-1.261h-19.676l-0.112 0.059-2.315 1.201c-0.329 0.135-0.664 0.257-1.006 0.364-0.311 0.097-0.639 0.146-0.987 0.146-0.934-0-1.718-0.307-2.377-0.929l-0.13-0.129c-0.69-0.714-1.030-1.557-1.030-2.559 0-0.286 0.051-0.566 0.153-0.841 0.059-0.159 0.122-0.318 0.188-0.475l0.207-0.467 3.852-7.459-0.079-0.213c-0.373-1.010-0.394-1.995-0.073-2.972 0.312-0.951 0.904-1.606 1.793-1.998l3.402-1.393c0.393-0.147 0.79-0.234 1.191-0.261 0.344-0.023 0.659 0.054 0.96 0.239l0.622 0.382 0.153-0.714c0.17-0.788 0.55-1.424 1.145-1.924 0.591-0.498 1.265-0.743 2.041-0.743zM31.049 12.718l-2.371 6.452 3.483 2.041c0.442 0.229 0.903 0.333 1.361 0.243 0.461-0.091 0.843-0.364 1.151-0.748 0.303-0.376 0.496-0.792 0.538-1.242 0.042-0.448-0.071-0.885-0.3-1.298h0.001l-3.464-6.533-0.399 1.086zM6.052 12.66l-2.924 5.722c-0.222 0.443-0.335 0.897-0.276 1.343 0.060 0.455 0.292 0.84 0.645 1.148 0.334 0.292 0.712 0.488 1.129 0.549s0.834-0.016 1.237-0.201l0.023-0.011 0.023-0.013 3.459-2.028-0.149-0.405-2.223-6.046-0.406-1.108-0.537 1.050zM12.876 5.123c-0.465-0.26-0.974-0.249-1.473-0.065l-0.198 0.083-3.233 1.39c-0.592 0.228-0.873 0.749-0.925 1.364-0.040 0.473-0.006 0.921 0.115 1.337l0.057 0.176 0.004 0.012 3.904 10.12h3.769l-0.051-0.564-1.152-12.545h-0.001c-0.042-0.569-0.316-1.028-0.817-1.308zM16.76 2.178c-0.544 0-1.039 0.165-1.383 0.574-0.318 0.377-0.444 0.838-0.408 1.337l0.001 0.008 1.358 15.444h5.348l0.043-0.469 1.357-14.974c0.068-0.524-0.081-1.002-0.457-1.378-0.362-0.362-0.818-0.541-1.333-0.541h-4.526zM26.841 5.141c-0.521-0.252-1.066-0.248-1.587 0.012-0.459 0.229-0.772 0.592-0.872 1.075l-0.028 0.202-1.194 12.546-0.054 0.565h3.819l0.129-0.325 3.972-9.956c0.191-0.452 0.271-0.913 0.22-1.378-0.066-0.59-0.441-1.005-0.974-1.254l-0.013-0.006-3.417-1.481z"></path>
</symbol>
</defs>
</svg>
